<?xml version="1.0"?>
<svg xmlns="http://www.w3.org/2000/svg" xmlns:xlink="http://www.w3.org/1999/xlink" xmlns:svgjs="http://svgjs.com/svgjs" version="1.1" width="512" height="512" x="0" y="0" viewBox="0 0 512 512" style="enable-background:new 0 0 512 512" xml:space="preserve" class=""><g><path xmlns="http://www.w3.org/2000/svg" d="m503.705 33.718-64.266-32.134c-3.56-1.78-7.678-2.071-11.451-.814-3.774 1.258-6.894 3.964-8.673 7.522l-172.587 345.175h-167.478c-.003 0-.002 0-.005 0-43.078 0-79.245 34.811-79.245 79.282 0 43.699 35.552 79.251 79.25 79.251h192.815c5.682 0 10.876-3.21 13.416-8.292l224.932-449.866c3.705-7.41.702-16.42-6.708-20.124z" fill="#545963" data-original="#000000" style="" class=""/><path xmlns="http://www.w3.org/2000/svg" d="m141.4 254.934c61.115 0 111.399-26.079 111.399-63.2v-20.886c-5.412 4.471-11.515 8.6-18.28 12.336-25.011 13.809-58.081 21.416-93.119 21.416-34.984 0-68.023-7.587-93.029-21.363-6.801-3.747-12.935-7.89-18.371-12.38v20.877c0 37.226 50.459 63.2 111.4 63.2z" fill="#545963" data-original="#000000" style="" class=""/><path xmlns="http://www.w3.org/2000/svg" d="m141.4 174.6c61.115 0 111.399-26.078 111.399-63.199 0-37.226-50.459-63.2-111.399-63.2-61.115-.001-111.4 26.078-111.4 63.199 0 37.227 50.459 63.2 111.4 63.2z" fill="#545963" data-original="#000000" style="" class=""/></g></svg>
