<?xml version="1.0"?>
<svg xmlns="http://www.w3.org/2000/svg" xmlns:xlink="http://www.w3.org/1999/xlink" xmlns:svgjs="http://svgjs.com/svgjs" version="1.1" width="512" height="512" x="0" y="0" viewBox="0 0 512 512" style="enable-background:new 0 0 512 512" xml:space="preserve" class=""><g><g xmlns="http://www.w3.org/2000/svg"><path d="m335.403 344.913-113.579 113.579c-18.065 18.065-40.916 29.583-65.695 33.374 31.177 13.205 64.992 20.134 99.871 20.134 68.38 0 132.667-26.629 181.019-74.981 27.338-27.337 47.731-59.769 60.294-95.154-45.717-42.439-117.439-41.424-161.91 3.048z" fill="#545963" data-original="#000000" style="" class=""/><path d="m167.087 176.597c44.471-44.471 45.487-116.193 3.048-161.91-35.385 12.563-67.817 32.956-95.154 60.294-48.352 48.352-74.981 112.639-74.981 181.019 0 34.879 6.929 68.694 20.135 99.871 3.791-24.779 15.31-47.631 33.374-65.695z" fill="#545963" data-original="#000000" style="" class=""/><path d="m437.019 74.981c-48.352-48.352-112.639-74.98-181.019-74.981-18.469 0-36.639 1.943-54.277 5.731 43.367 57.447 38.893 139.764-13.423 192.079l-113.578 113.579c-16.785 16.785-26.006 39.102-25.965 62.84.041 23.632 9.52 46.086 26.224 62.79 16.705 16.705 39.157 26.183 62.79 26.225 23.739.041 46.055-9.181 62.84-25.966l113.579-113.578c52.315-52.315 134.632-56.789 192.079-13.422 3.788-17.639 5.731-35.809 5.731-54.278-.001-68.38-26.629-132.667-74.981-181.019zm-99.786 148.439-48.652-48.652 21.213-21.213 48.652 48.652zm63.639-21.214-91.079-91.079 21.213-21.213 91.079 91.079z" fill="#545963" data-original="#000000" style="" class=""/></g></g></svg>
